<mxfile host="Electron" modified="2024-08-08T14:06:14.110Z" agent="Mozilla/5.0 (Windows NT 10.0; Win64; x64) AppleWebKit/537.36 (KHTML, like Gecko) draw.io/24.4.8 Chrome/124.0.6367.207 Electron/30.0.6 Safari/537.36" etag="wmZPC1uIR-kD3svXfmYP" version="24.4.8" type="device">
  <diagram name="第 1 页" id="Jx_qYgldWYkmrgB27Mcr">
    <mxGraphModel dx="1628" dy="1097" grid="1" gridSize="10" guides="1" tooltips="1" connect="1" arrows="1" fold="1" page="1" pageScale="1" pageWidth="3300" pageHeight="4681" math="0" shadow="0">
      <root>
        <mxCell id="0" />
        <mxCell id="1" parent="0" />
        <mxCell id="qZQxCDQvBT4VLoPbUi0a-57" style="edgeStyle=orthogonalEdgeStyle;rounded=0;orthogonalLoop=1;jettySize=auto;html=1;exitX=1;exitY=0.25;exitDx=0;exitDy=0;entryX=0;entryY=0.25;entryDx=0;entryDy=0;" edge="1" parent="1" source="qZQxCDQvBT4VLoPbUi0a-20" target="qZQxCDQvBT4VLoPbUi0a-30">
          <mxGeometry relative="1" as="geometry" />
        </mxCell>
        <mxCell id="qZQxCDQvBT4VLoPbUi0a-20" value="" style="rounded=1;whiteSpace=wrap;html=1;" vertex="1" parent="1">
          <mxGeometry x="370" y="710" width="70" height="130" as="geometry" />
        </mxCell>
        <mxCell id="qZQxCDQvBT4VLoPbUi0a-21" value="" style="rounded=0;whiteSpace=wrap;html=1;" vertex="1" parent="1">
          <mxGeometry x="370" y="750" width="70" height="50" as="geometry" />
        </mxCell>
        <mxCell id="qZQxCDQvBT4VLoPbUi0a-58" style="edgeStyle=orthogonalEdgeStyle;rounded=0;orthogonalLoop=1;jettySize=auto;html=1;exitX=0;exitY=0.75;exitDx=0;exitDy=0;entryX=1;entryY=0.75;entryDx=0;entryDy=0;" edge="1" parent="1" source="qZQxCDQvBT4VLoPbUi0a-30" target="qZQxCDQvBT4VLoPbUi0a-20">
          <mxGeometry relative="1" as="geometry" />
        </mxCell>
        <mxCell id="qZQxCDQvBT4VLoPbUi0a-59" style="edgeStyle=orthogonalEdgeStyle;rounded=0;orthogonalLoop=1;jettySize=auto;html=1;exitX=1;exitY=0.25;exitDx=0;exitDy=0;entryX=0;entryY=0.25;entryDx=0;entryDy=0;" edge="1" parent="1" source="qZQxCDQvBT4VLoPbUi0a-30" target="qZQxCDQvBT4VLoPbUi0a-32">
          <mxGeometry relative="1" as="geometry" />
        </mxCell>
        <mxCell id="qZQxCDQvBT4VLoPbUi0a-30" value="" style="rounded=1;whiteSpace=wrap;html=1;" vertex="1" parent="1">
          <mxGeometry x="520" y="710" width="70" height="130" as="geometry" />
        </mxCell>
        <mxCell id="qZQxCDQvBT4VLoPbUi0a-60" style="edgeStyle=orthogonalEdgeStyle;rounded=0;orthogonalLoop=1;jettySize=auto;html=1;exitX=0;exitY=0.75;exitDx=0;exitDy=0;entryX=1;entryY=0.75;entryDx=0;entryDy=0;" edge="1" parent="1" source="qZQxCDQvBT4VLoPbUi0a-32" target="qZQxCDQvBT4VLoPbUi0a-30">
          <mxGeometry relative="1" as="geometry" />
        </mxCell>
        <mxCell id="qZQxCDQvBT4VLoPbUi0a-61" style="edgeStyle=orthogonalEdgeStyle;rounded=0;orthogonalLoop=1;jettySize=auto;html=1;exitX=1;exitY=0.25;exitDx=0;exitDy=0;entryX=0;entryY=0.25;entryDx=0;entryDy=0;" edge="1" parent="1" source="qZQxCDQvBT4VLoPbUi0a-32" target="qZQxCDQvBT4VLoPbUi0a-34">
          <mxGeometry relative="1" as="geometry" />
        </mxCell>
        <mxCell id="qZQxCDQvBT4VLoPbUi0a-32" value="" style="rounded=1;whiteSpace=wrap;html=1;" vertex="1" parent="1">
          <mxGeometry x="670" y="710" width="70" height="130" as="geometry" />
        </mxCell>
        <mxCell id="qZQxCDQvBT4VLoPbUi0a-62" style="edgeStyle=orthogonalEdgeStyle;rounded=0;orthogonalLoop=1;jettySize=auto;html=1;exitX=0;exitY=0.75;exitDx=0;exitDy=0;entryX=1;entryY=0.75;entryDx=0;entryDy=0;" edge="1" parent="1" source="qZQxCDQvBT4VLoPbUi0a-34" target="qZQxCDQvBT4VLoPbUi0a-32">
          <mxGeometry relative="1" as="geometry" />
        </mxCell>
        <mxCell id="qZQxCDQvBT4VLoPbUi0a-63" style="edgeStyle=orthogonalEdgeStyle;rounded=0;orthogonalLoop=1;jettySize=auto;html=1;exitX=1;exitY=0.25;exitDx=0;exitDy=0;entryX=0;entryY=0.25;entryDx=0;entryDy=0;" edge="1" parent="1" source="qZQxCDQvBT4VLoPbUi0a-34" target="qZQxCDQvBT4VLoPbUi0a-36">
          <mxGeometry relative="1" as="geometry" />
        </mxCell>
        <mxCell id="qZQxCDQvBT4VLoPbUi0a-34" value="" style="rounded=1;whiteSpace=wrap;html=1;" vertex="1" parent="1">
          <mxGeometry x="820" y="710" width="70" height="130" as="geometry" />
        </mxCell>
        <mxCell id="qZQxCDQvBT4VLoPbUi0a-64" style="edgeStyle=orthogonalEdgeStyle;rounded=0;orthogonalLoop=1;jettySize=auto;html=1;exitX=0;exitY=0.75;exitDx=0;exitDy=0;entryX=1;entryY=0.75;entryDx=0;entryDy=0;" edge="1" parent="1" source="qZQxCDQvBT4VLoPbUi0a-36" target="qZQxCDQvBT4VLoPbUi0a-34">
          <mxGeometry relative="1" as="geometry" />
        </mxCell>
        <mxCell id="qZQxCDQvBT4VLoPbUi0a-36" value="" style="rounded=1;whiteSpace=wrap;html=1;" vertex="1" parent="1">
          <mxGeometry x="970" y="710" width="70" height="130" as="geometry" />
        </mxCell>
        <mxCell id="qZQxCDQvBT4VLoPbUi0a-38" value="&lt;font style=&quot;font-size: 24px;&quot;&gt;1&lt;/font&gt;" style="rounded=0;whiteSpace=wrap;html=1;" vertex="1" parent="1">
          <mxGeometry x="520" y="750" width="70" height="50" as="geometry" />
        </mxCell>
        <mxCell id="qZQxCDQvBT4VLoPbUi0a-39" value="&lt;font style=&quot;font-size: 24px;&quot;&gt;2&lt;/font&gt;" style="rounded=0;whiteSpace=wrap;html=1;" vertex="1" parent="1">
          <mxGeometry x="670" y="750" width="70" height="50" as="geometry" />
        </mxCell>
        <mxCell id="qZQxCDQvBT4VLoPbUi0a-40" value="&lt;font style=&quot;font-size: 24px;&quot;&gt;3&lt;/font&gt;" style="rounded=0;whiteSpace=wrap;html=1;" vertex="1" parent="1">
          <mxGeometry x="820" y="750" width="70" height="50" as="geometry" />
        </mxCell>
        <mxCell id="qZQxCDQvBT4VLoPbUi0a-41" value="&lt;font style=&quot;font-size: 24px;&quot;&gt;4&lt;/font&gt;" style="rounded=0;whiteSpace=wrap;html=1;" vertex="1" parent="1">
          <mxGeometry x="970" y="750" width="70" height="50" as="geometry" />
        </mxCell>
        <mxCell id="qZQxCDQvBT4VLoPbUi0a-47" value="" style="edgeStyle=elbowEdgeStyle;elbow=vertical;endArrow=classic;html=1;curved=0;rounded=0;endSize=8;startSize=8;entryX=0.5;entryY=0;entryDx=0;entryDy=0;exitX=0.5;exitY=0;exitDx=0;exitDy=0;" edge="1" parent="1" source="qZQxCDQvBT4VLoPbUi0a-36" target="qZQxCDQvBT4VLoPbUi0a-20">
          <mxGeometry width="50" height="50" relative="1" as="geometry">
            <mxPoint x="1050" y="705" as="sourcePoint" />
            <mxPoint x="350" y="760" as="targetPoint" />
            <Array as="points">
              <mxPoint x="690" y="660" />
            </Array>
          </mxGeometry>
        </mxCell>
        <mxCell id="qZQxCDQvBT4VLoPbUi0a-48" value="" style="edgeStyle=elbowEdgeStyle;elbow=vertical;endArrow=classic;html=1;curved=0;rounded=0;endSize=8;startSize=8;exitX=0.5;exitY=1;exitDx=0;exitDy=0;entryX=0.5;entryY=1;entryDx=0;entryDy=0;" edge="1" parent="1" source="qZQxCDQvBT4VLoPbUi0a-20" target="qZQxCDQvBT4VLoPbUi0a-36">
          <mxGeometry width="50" height="50" relative="1" as="geometry">
            <mxPoint x="1015" y="720" as="sourcePoint" />
            <mxPoint x="990" y="860" as="targetPoint" />
            <Array as="points">
              <mxPoint x="700" y="890" />
            </Array>
          </mxGeometry>
        </mxCell>
        <mxCell id="qZQxCDQvBT4VLoPbUi0a-49" value="&lt;font style=&quot;font-size: 24px;&quot;&gt;head&lt;/font&gt;" style="text;html=1;align=center;verticalAlign=middle;resizable=0;points=[];autosize=1;strokeColor=none;fillColor=none;" vertex="1" parent="1">
          <mxGeometry x="220" y="755" width="80" height="40" as="geometry" />
        </mxCell>
        <mxCell id="qZQxCDQvBT4VLoPbUi0a-50" value="" style="endArrow=classic;html=1;rounded=0;entryX=0;entryY=0.5;entryDx=0;entryDy=0;" edge="1" parent="1" source="qZQxCDQvBT4VLoPbUi0a-49" target="qZQxCDQvBT4VLoPbUi0a-21">
          <mxGeometry width="50" height="50" relative="1" as="geometry">
            <mxPoint x="341.68000000000006" y="818" as="sourcePoint" />
            <mxPoint x="390" y="913" as="targetPoint" />
          </mxGeometry>
        </mxCell>
        <mxCell id="qZQxCDQvBT4VLoPbUi0a-51" value="&lt;font style=&quot;font-size: 24px;&quot;&gt;begin()&lt;/font&gt;" style="text;html=1;align=center;verticalAlign=middle;resizable=0;points=[];autosize=1;strokeColor=none;fillColor=none;" vertex="1" parent="1">
          <mxGeometry x="480" y="580" width="100" height="40" as="geometry" />
        </mxCell>
        <mxCell id="qZQxCDQvBT4VLoPbUi0a-52" value="&lt;font style=&quot;font-size: 24px;&quot;&gt;end()&lt;/font&gt;" style="text;html=1;align=center;verticalAlign=middle;resizable=0;points=[];autosize=1;strokeColor=none;fillColor=none;" vertex="1" parent="1">
          <mxGeometry x="280" y="600" width="80" height="40" as="geometry" />
        </mxCell>
        <mxCell id="qZQxCDQvBT4VLoPbUi0a-53" value="&lt;font style=&quot;font-size: 24px;&quot;&gt;rbegin()&lt;/font&gt;" style="text;html=1;align=center;verticalAlign=middle;resizable=0;points=[];autosize=1;strokeColor=none;fillColor=none;" vertex="1" parent="1">
          <mxGeometry x="1070" y="890" width="110" height="40" as="geometry" />
        </mxCell>
        <mxCell id="qZQxCDQvBT4VLoPbUi0a-54" value="&lt;font style=&quot;font-size: 24px;&quot;&gt;rend()&lt;/font&gt;" style="text;html=1;align=center;verticalAlign=middle;resizable=0;points=[];autosize=1;strokeColor=none;fillColor=none;" vertex="1" parent="1">
          <mxGeometry x="320" y="940" width="90" height="40" as="geometry" />
        </mxCell>
        <mxCell id="qZQxCDQvBT4VLoPbUi0a-55" value="" style="endArrow=classic;html=1;rounded=0;exitX=0.463;exitY=1.133;exitDx=0;exitDy=0;exitPerimeter=0;entryX=0.5;entryY=0;entryDx=0;entryDy=0;" edge="1" parent="1" source="qZQxCDQvBT4VLoPbUi0a-51" target="qZQxCDQvBT4VLoPbUi0a-38">
          <mxGeometry width="50" height="50" relative="1" as="geometry">
            <mxPoint x="350" y="973" as="sourcePoint" />
            <mxPoint x="398" y="810" as="targetPoint" />
          </mxGeometry>
        </mxCell>
        <mxCell id="qZQxCDQvBT4VLoPbUi0a-65" value="" style="endArrow=classic;html=1;rounded=0;exitX=0.463;exitY=1.133;exitDx=0;exitDy=0;exitPerimeter=0;entryX=0.5;entryY=0;entryDx=0;entryDy=0;" edge="1" parent="1" target="qZQxCDQvBT4VLoPbUi0a-21">
          <mxGeometry width="50" height="50" relative="1" as="geometry">
            <mxPoint x="325.5" y="635" as="sourcePoint" />
            <mxPoint x="354.5" y="760" as="targetPoint" />
          </mxGeometry>
        </mxCell>
        <mxCell id="qZQxCDQvBT4VLoPbUi0a-67" value="" style="endArrow=classic;html=1;rounded=0;entryX=1;entryY=0.5;entryDx=0;entryDy=0;" edge="1" parent="1" source="qZQxCDQvBT4VLoPbUi0a-53" target="qZQxCDQvBT4VLoPbUi0a-41">
          <mxGeometry width="50" height="50" relative="1" as="geometry">
            <mxPoint x="1100" y="880" as="sourcePoint" />
            <mxPoint x="1129" y="1005" as="targetPoint" />
          </mxGeometry>
        </mxCell>
        <mxCell id="qZQxCDQvBT4VLoPbUi0a-68" value="" style="endArrow=classic;html=1;rounded=0;exitX=0.53;exitY=0.067;exitDx=0;exitDy=0;exitPerimeter=0;entryX=0.5;entryY=1;entryDx=0;entryDy=0;" edge="1" parent="1" source="qZQxCDQvBT4VLoPbUi0a-54" target="qZQxCDQvBT4VLoPbUi0a-21">
          <mxGeometry width="50" height="50" relative="1" as="geometry">
            <mxPoint x="546" y="645" as="sourcePoint" />
            <mxPoint x="575" y="770" as="targetPoint" />
          </mxGeometry>
        </mxCell>
        <mxCell id="qZQxCDQvBT4VLoPbUi0a-69" style="edgeStyle=orthogonalEdgeStyle;rounded=0;orthogonalLoop=1;jettySize=auto;html=1;exitX=1;exitY=0.25;exitDx=0;exitDy=0;entryX=0;entryY=0.25;entryDx=0;entryDy=0;" edge="1" parent="1" source="qZQxCDQvBT4VLoPbUi0a-70" target="qZQxCDQvBT4VLoPbUi0a-74">
          <mxGeometry relative="1" as="geometry" />
        </mxCell>
        <mxCell id="qZQxCDQvBT4VLoPbUi0a-70" value="" style="rounded=1;whiteSpace=wrap;html=1;" vertex="1" parent="1">
          <mxGeometry x="440" y="1170" width="70" height="130" as="geometry" />
        </mxCell>
        <mxCell id="qZQxCDQvBT4VLoPbUi0a-71" value="" style="rounded=0;whiteSpace=wrap;html=1;" vertex="1" parent="1">
          <mxGeometry x="440" y="1210" width="70" height="50" as="geometry" />
        </mxCell>
        <mxCell id="qZQxCDQvBT4VLoPbUi0a-72" style="edgeStyle=orthogonalEdgeStyle;rounded=0;orthogonalLoop=1;jettySize=auto;html=1;exitX=0;exitY=0.75;exitDx=0;exitDy=0;entryX=1;entryY=0.75;entryDx=0;entryDy=0;" edge="1" parent="1" source="qZQxCDQvBT4VLoPbUi0a-74" target="qZQxCDQvBT4VLoPbUi0a-70">
          <mxGeometry relative="1" as="geometry" />
        </mxCell>
        <mxCell id="qZQxCDQvBT4VLoPbUi0a-73" style="edgeStyle=orthogonalEdgeStyle;rounded=0;orthogonalLoop=1;jettySize=auto;html=1;exitX=1;exitY=0.25;exitDx=0;exitDy=0;entryX=0;entryY=0.25;entryDx=0;entryDy=0;" edge="1" parent="1" source="qZQxCDQvBT4VLoPbUi0a-74" target="qZQxCDQvBT4VLoPbUi0a-77">
          <mxGeometry relative="1" as="geometry" />
        </mxCell>
        <mxCell id="qZQxCDQvBT4VLoPbUi0a-74" value="" style="rounded=1;whiteSpace=wrap;html=1;" vertex="1" parent="1">
          <mxGeometry x="590" y="1170" width="70" height="130" as="geometry" />
        </mxCell>
        <mxCell id="qZQxCDQvBT4VLoPbUi0a-75" style="edgeStyle=orthogonalEdgeStyle;rounded=0;orthogonalLoop=1;jettySize=auto;html=1;exitX=0;exitY=0.75;exitDx=0;exitDy=0;entryX=1;entryY=0.75;entryDx=0;entryDy=0;" edge="1" parent="1" source="qZQxCDQvBT4VLoPbUi0a-77" target="qZQxCDQvBT4VLoPbUi0a-74">
          <mxGeometry relative="1" as="geometry" />
        </mxCell>
        <mxCell id="qZQxCDQvBT4VLoPbUi0a-76" style="edgeStyle=orthogonalEdgeStyle;rounded=0;orthogonalLoop=1;jettySize=auto;html=1;exitX=1;exitY=0.25;exitDx=0;exitDy=0;entryX=0;entryY=0.25;entryDx=0;entryDy=0;" edge="1" parent="1" source="qZQxCDQvBT4VLoPbUi0a-77" target="qZQxCDQvBT4VLoPbUi0a-80">
          <mxGeometry relative="1" as="geometry" />
        </mxCell>
        <mxCell id="qZQxCDQvBT4VLoPbUi0a-77" value="" style="rounded=1;whiteSpace=wrap;html=1;" vertex="1" parent="1">
          <mxGeometry x="740" y="1170" width="70" height="130" as="geometry" />
        </mxCell>
        <mxCell id="qZQxCDQvBT4VLoPbUi0a-78" style="edgeStyle=orthogonalEdgeStyle;rounded=0;orthogonalLoop=1;jettySize=auto;html=1;exitX=0;exitY=0.75;exitDx=0;exitDy=0;entryX=1;entryY=0.75;entryDx=0;entryDy=0;" edge="1" parent="1" source="qZQxCDQvBT4VLoPbUi0a-80" target="qZQxCDQvBT4VLoPbUi0a-77">
          <mxGeometry relative="1" as="geometry" />
        </mxCell>
        <mxCell id="qZQxCDQvBT4VLoPbUi0a-79" style="edgeStyle=orthogonalEdgeStyle;rounded=0;orthogonalLoop=1;jettySize=auto;html=1;exitX=1;exitY=0.25;exitDx=0;exitDy=0;entryX=0;entryY=0.25;entryDx=0;entryDy=0;" edge="1" parent="1" source="qZQxCDQvBT4VLoPbUi0a-80" target="qZQxCDQvBT4VLoPbUi0a-82">
          <mxGeometry relative="1" as="geometry" />
        </mxCell>
        <mxCell id="qZQxCDQvBT4VLoPbUi0a-80" value="" style="rounded=1;whiteSpace=wrap;html=1;" vertex="1" parent="1">
          <mxGeometry x="890" y="1170" width="70" height="130" as="geometry" />
        </mxCell>
        <mxCell id="qZQxCDQvBT4VLoPbUi0a-81" style="edgeStyle=orthogonalEdgeStyle;rounded=0;orthogonalLoop=1;jettySize=auto;html=1;exitX=0;exitY=0.75;exitDx=0;exitDy=0;entryX=1;entryY=0.75;entryDx=0;entryDy=0;" edge="1" parent="1" source="qZQxCDQvBT4VLoPbUi0a-82" target="qZQxCDQvBT4VLoPbUi0a-80">
          <mxGeometry relative="1" as="geometry" />
        </mxCell>
        <mxCell id="qZQxCDQvBT4VLoPbUi0a-82" value="" style="rounded=1;whiteSpace=wrap;html=1;" vertex="1" parent="1">
          <mxGeometry x="1040" y="1170" width="70" height="130" as="geometry" />
        </mxCell>
        <mxCell id="qZQxCDQvBT4VLoPbUi0a-83" value="&lt;font style=&quot;font-size: 24px;&quot;&gt;1&lt;/font&gt;" style="rounded=0;whiteSpace=wrap;html=1;" vertex="1" parent="1">
          <mxGeometry x="590" y="1210" width="70" height="50" as="geometry" />
        </mxCell>
        <mxCell id="qZQxCDQvBT4VLoPbUi0a-84" value="&lt;font style=&quot;font-size: 24px;&quot;&gt;2&lt;/font&gt;" style="rounded=0;whiteSpace=wrap;html=1;" vertex="1" parent="1">
          <mxGeometry x="740" y="1210" width="70" height="50" as="geometry" />
        </mxCell>
        <mxCell id="qZQxCDQvBT4VLoPbUi0a-85" value="&lt;font style=&quot;font-size: 24px;&quot;&gt;3&lt;/font&gt;" style="rounded=0;whiteSpace=wrap;html=1;" vertex="1" parent="1">
          <mxGeometry x="890" y="1210" width="70" height="50" as="geometry" />
        </mxCell>
        <mxCell id="qZQxCDQvBT4VLoPbUi0a-86" value="&lt;font style=&quot;font-size: 24px;&quot;&gt;4&lt;/font&gt;" style="rounded=0;whiteSpace=wrap;html=1;" vertex="1" parent="1">
          <mxGeometry x="1040" y="1210" width="70" height="50" as="geometry" />
        </mxCell>
        <mxCell id="qZQxCDQvBT4VLoPbUi0a-88" style="edgeStyle=orthogonalEdgeStyle;rounded=0;orthogonalLoop=1;jettySize=auto;html=1;exitX=1;exitY=0.25;exitDx=0;exitDy=0;entryX=0;entryY=0.25;entryDx=0;entryDy=0;" edge="1" parent="1" source="qZQxCDQvBT4VLoPbUi0a-89" target="qZQxCDQvBT4VLoPbUi0a-93">
          <mxGeometry relative="1" as="geometry" />
        </mxCell>
        <mxCell id="qZQxCDQvBT4VLoPbUi0a-89" value="" style="rounded=1;whiteSpace=wrap;html=1;" vertex="1" parent="1">
          <mxGeometry x="450" y="1390" width="70" height="130" as="geometry" />
        </mxCell>
        <mxCell id="qZQxCDQvBT4VLoPbUi0a-90" value="" style="rounded=0;whiteSpace=wrap;html=1;" vertex="1" parent="1">
          <mxGeometry x="450" y="1430" width="70" height="50" as="geometry" />
        </mxCell>
        <mxCell id="qZQxCDQvBT4VLoPbUi0a-91" style="edgeStyle=orthogonalEdgeStyle;rounded=0;orthogonalLoop=1;jettySize=auto;html=1;exitX=0;exitY=0.75;exitDx=0;exitDy=0;entryX=1;entryY=0.75;entryDx=0;entryDy=0;" edge="1" parent="1" source="qZQxCDQvBT4VLoPbUi0a-93" target="qZQxCDQvBT4VLoPbUi0a-89">
          <mxGeometry relative="1" as="geometry" />
        </mxCell>
        <mxCell id="qZQxCDQvBT4VLoPbUi0a-108" style="edgeStyle=orthogonalEdgeStyle;rounded=0;orthogonalLoop=1;jettySize=auto;html=1;exitX=1;exitY=0.25;exitDx=0;exitDy=0;entryX=0;entryY=0.25;entryDx=0;entryDy=0;" edge="1" parent="1" source="qZQxCDQvBT4VLoPbUi0a-93" target="qZQxCDQvBT4VLoPbUi0a-99">
          <mxGeometry relative="1" as="geometry" />
        </mxCell>
        <mxCell id="qZQxCDQvBT4VLoPbUi0a-93" value="" style="rounded=1;whiteSpace=wrap;html=1;" vertex="1" parent="1">
          <mxGeometry x="600" y="1390" width="70" height="130" as="geometry" />
        </mxCell>
        <mxCell id="qZQxCDQvBT4VLoPbUi0a-96" value="" style="rounded=1;whiteSpace=wrap;html=1;" vertex="1" parent="1">
          <mxGeometry x="830" y="1550" width="70" height="130" as="geometry" />
        </mxCell>
        <mxCell id="qZQxCDQvBT4VLoPbUi0a-98" style="edgeStyle=orthogonalEdgeStyle;rounded=0;orthogonalLoop=1;jettySize=auto;html=1;exitX=1;exitY=0.25;exitDx=0;exitDy=0;entryX=0;entryY=0.25;entryDx=0;entryDy=0;" edge="1" parent="1" source="qZQxCDQvBT4VLoPbUi0a-99" target="qZQxCDQvBT4VLoPbUi0a-101">
          <mxGeometry relative="1" as="geometry" />
        </mxCell>
        <mxCell id="qZQxCDQvBT4VLoPbUi0a-109" style="edgeStyle=orthogonalEdgeStyle;rounded=0;orthogonalLoop=1;jettySize=auto;html=1;exitX=0;exitY=0.75;exitDx=0;exitDy=0;entryX=1;entryY=0.75;entryDx=0;entryDy=0;" edge="1" parent="1" source="qZQxCDQvBT4VLoPbUi0a-99" target="qZQxCDQvBT4VLoPbUi0a-93">
          <mxGeometry relative="1" as="geometry" />
        </mxCell>
        <mxCell id="qZQxCDQvBT4VLoPbUi0a-99" value="" style="rounded=1;whiteSpace=wrap;html=1;" vertex="1" parent="1">
          <mxGeometry x="900" y="1390" width="70" height="130" as="geometry" />
        </mxCell>
        <mxCell id="qZQxCDQvBT4VLoPbUi0a-100" style="edgeStyle=orthogonalEdgeStyle;rounded=0;orthogonalLoop=1;jettySize=auto;html=1;exitX=0;exitY=0.75;exitDx=0;exitDy=0;entryX=1;entryY=0.75;entryDx=0;entryDy=0;" edge="1" parent="1" source="qZQxCDQvBT4VLoPbUi0a-101" target="qZQxCDQvBT4VLoPbUi0a-99">
          <mxGeometry relative="1" as="geometry" />
        </mxCell>
        <mxCell id="qZQxCDQvBT4VLoPbUi0a-101" value="" style="rounded=1;whiteSpace=wrap;html=1;" vertex="1" parent="1">
          <mxGeometry x="1050" y="1390" width="70" height="130" as="geometry" />
        </mxCell>
        <mxCell id="qZQxCDQvBT4VLoPbUi0a-102" value="&lt;font style=&quot;font-size: 24px;&quot;&gt;1&lt;/font&gt;" style="rounded=0;whiteSpace=wrap;html=1;" vertex="1" parent="1">
          <mxGeometry x="600" y="1430" width="70" height="50" as="geometry" />
        </mxCell>
        <mxCell id="qZQxCDQvBT4VLoPbUi0a-103" value="&lt;font style=&quot;font-size: 24px;&quot;&gt;2&lt;/font&gt;" style="rounded=0;whiteSpace=wrap;html=1;" vertex="1" parent="1">
          <mxGeometry x="830" y="1590" width="70" height="50" as="geometry" />
        </mxCell>
        <mxCell id="qZQxCDQvBT4VLoPbUi0a-104" value="&lt;font style=&quot;font-size: 24px;&quot;&gt;3&lt;/font&gt;" style="rounded=0;whiteSpace=wrap;html=1;" vertex="1" parent="1">
          <mxGeometry x="900" y="1430" width="70" height="50" as="geometry" />
        </mxCell>
        <mxCell id="qZQxCDQvBT4VLoPbUi0a-105" value="&lt;font style=&quot;font-size: 24px;&quot;&gt;4&lt;/font&gt;" style="rounded=0;whiteSpace=wrap;html=1;" vertex="1" parent="1">
          <mxGeometry x="1050" y="1430" width="70" height="50" as="geometry" />
        </mxCell>
        <mxCell id="qZQxCDQvBT4VLoPbUi0a-107" value="" style="edgeStyle=orthogonalEdgeStyle;rounded=0;orthogonalLoop=1;jettySize=auto;html=1;" edge="1" parent="1" source="qZQxCDQvBT4VLoPbUi0a-106" target="qZQxCDQvBT4VLoPbUi0a-77">
          <mxGeometry relative="1" as="geometry" />
        </mxCell>
        <mxCell id="qZQxCDQvBT4VLoPbUi0a-106" value="&lt;font style=&quot;font-size: 36px;&quot;&gt;it&lt;/font&gt;" style="text;html=1;align=center;verticalAlign=middle;resizable=0;points=[];autosize=1;strokeColor=none;fillColor=none;" vertex="1" parent="1">
          <mxGeometry x="890" y="1100" width="40" height="60" as="geometry" />
        </mxCell>
        <mxCell id="qZQxCDQvBT4VLoPbUi0a-111" style="edgeStyle=orthogonalEdgeStyle;rounded=0;orthogonalLoop=1;jettySize=auto;html=1;entryX=0;entryY=0.5;entryDx=0;entryDy=0;" edge="1" parent="1" source="qZQxCDQvBT4VLoPbUi0a-110" target="qZQxCDQvBT4VLoPbUi0a-103">
          <mxGeometry relative="1" as="geometry" />
        </mxCell>
        <mxCell id="qZQxCDQvBT4VLoPbUi0a-110" value="&lt;font style=&quot;font-size: 36px;&quot;&gt;it&lt;/font&gt;" style="text;html=1;align=center;verticalAlign=middle;resizable=0;points=[];autosize=1;strokeColor=none;fillColor=none;" vertex="1" parent="1">
          <mxGeometry x="640" y="1585" width="40" height="60" as="geometry" />
        </mxCell>
        <mxCell id="qZQxCDQvBT4VLoPbUi0a-112" value="" style="shape=flexArrow;endArrow=classic;html=1;rounded=0;endWidth=109.52380952380952;endSize=16.36190476190476;width=87.61904761904762;" edge="1" parent="1">
          <mxGeometry width="50" height="50" relative="1" as="geometry">
            <mxPoint x="774.52" y="1320" as="sourcePoint" />
            <mxPoint x="774.52" y="1400" as="targetPoint" />
          </mxGeometry>
        </mxCell>
        <mxCell id="qZQxCDQvBT4VLoPbUi0a-115" value="&lt;font style=&quot;font-size: 24px;&quot;&gt;erase&lt;/font&gt;" style="edgeLabel;html=1;align=center;verticalAlign=middle;resizable=0;points=[];" vertex="1" connectable="0" parent="qZQxCDQvBT4VLoPbUi0a-112">
          <mxGeometry x="-0.1238" y="4" relative="1" as="geometry">
            <mxPoint x="-4" as="offset" />
          </mxGeometry>
        </mxCell>
      </root>
    </mxGraphModel>
  </diagram>
</mxfile>
